- 
http://www.Speed.Cd 
       
http://www.Speed.Cd       the fast  and The Hottest Private Tracker on the net

(((--Registration will be open on june every weekend--)))

Please Seed back to make the speed Faster!!!

------------------nfo--------------------------
-                                                                                                     
       
     
     
       
       
     
     
                                         
                                         
                EXVID                    
                                         
         
                                         
         Filled the Archives             
                                         
         
                                         
                With:                    
                                         
         
                                         
                                    
     E240                           
                                    
     SP               (C) 2009      
                                         
     
     
     
                                                                                  
                                                                                   
                   The.Bridge.1959.DVDRip.XviD-EXViD                                
                                                                                   
                                                                                  
     
                                                                                               
EXViD aims to iNTERNAL those releases which have been lost in the archives.
EXViD aims to PRE non-internal releases which have poor sources and are likely skipped by others.
 
http://www.imdb.com/title/tt0052654/
Subtitles: EN
Date: 2011.07

Director: Bernhard Wicki

Genres: Drama | War

Plot:
A group of German boys is ordered to protect a small bridge in their home village during the
waning months of the second world war. Truckloads of defeated, cynical Wehrmacht soldiers flee
the approaching American troops, but the boys, full of enthusiasm for the "blood and honor"
Nazi ideology, stay to defend the useless bridge.

Cast:
Folker Bohnet 	 ... 	 Hans Scholten 
Fritz Wepper 	 ... 	 Albert Mutz 
Michael Hinz 	 ... 	 Walter Forst 
Frank Glaubrecht 	 ... 	 Jurgen Borchert 
Karl Michael Balzer 	 ... 	 Karl Horber 
Volker Lechtenbrink 	 ... 	 Klaus Hager 
Gnther Hoffmann 	 ... 	 Sigi Bernhard 
Cordula Trantow 	 ... 	 Franziska 
Wolfgang Stumpf 	 ... 	 Stern 
Gnter Pfitzmann 	 ... 	 Heilmann 
Heinz Spitzner 	 ... 	 Frhlich 
Siegfried Schrenberg 	 ... 	 Lt. Colonel 
Ruth Hausmeister 	 ... 	 Mrs. Mutz 
Eva Vaitl 	 ... 	 Mrs. Borchert 
Edith Schultze-Westrum 	 ... 	 Mother Bernhard

Stats:
Format                           : AVI
Format/Info                      : Audio Video Interleave
File size                        : 700 MiB
Duration                         : 1h 38mn
Overall bit rate                 : 995 Kbps
Writing application              : Nandub v1.0rc2
Writing library                  : Nandub build 1852/release

Video
ID                               : 0
Format                           : MPEG-4 Visual
Format profile                   : Advanced Simple@L5
Format settings, BVOP            : 2
Format settings, QPel            : No
Format settings, GMC             : No warppoints
Format settings, Matrix          : Default (H.263)
Codec ID                         : XVID
Codec ID/Hint                    : XviD
Duration                         : 1h 38mn
Bit rate                         : 908 Kbps
Width                            : 512 pixels
Height                           : 384 pixels
Display aspect ratio             : 4:3
Frame rate                       : 25.000 fps
Color space                      : YUV
Chroma subsampling               : 4:2:0
Bit depth                        : 8 bits
Scan type                        : Progressive
Compression mode                 : Lossy
Bits/(Pixel*Frame)               : 0.185
Stream size                      : 639 MiB (91%)
Writing library                  : XviD 1.2.1 (UTC 2008-12-04)

Audio
ID                               : 1
Format                           : MPEG Audio
Format version                   : Version 1
Format profile                   : Layer 3
Codec ID                         : 55
Codec ID/Hint                    : MP3
Duration                         : 1h 38mn
Bit rate mode                    : Variable
Bit rate                         : 73.9 Kbps
Nominal bit rate                 : 80.0 Kbps
Channel(s)                       : 1 channel
Sampling rate                    : 48.0 KHz
Compression mode                 : Lossy
Stream size                      : 52.0 MiB (7%)
Alignment                        : Aligned on interleaves
Interleave, duration             : 24 ms (0.60 video frame)
Interleave, preload duration     : 491 ms
Writing library                  : LAME3.98r
Encoding settings                : -m m -V 4 -q 3 -lowpass 20.3 --abr 80




Release notes:
enjoy!

Looking for:
75TB+ Archives
DUTCH/FLEMiSH Archives
                                                                                                    
Greets: CRBS EPiSODE FiCO FLS iLS KLASSiGER LiPSYNC MADE NODLABS RUNNER SPRiNTER      
   

                                                                    ASCII DONE BY XX^NFO 2oo9